<?xml version="1.0" encoding="utf-8"?>
<!-- Generator: Adobe Illustrator 22.1.0, SVG Export Plug-In . SVG Version: 6.00 Build 0)  -->
<svg version="1.2" baseProfile="tiny" id="Layer_1" xmlns="http://www.w3.org/2000/svg" xmlns:xlink="http://www.w3.org/1999/xlink"
	 x="0px" y="0px" viewBox="0 0 32 32" xml:space="preserve">
<g>
	<path fill="#6D6E6F" d="M0,0v1v30v1h1h13h1v-1V1V0H0z M14,31H1V1h13V31z"/>
	<rect x="17.5" y="9.5" fill="#90C97F" stroke="#6D6E6F" stroke-miterlimit="10" width="9" height="22"/>
	<polyline fill="none" stroke="#6D6E6F" stroke-miterlimit="10" points="14.5,17.5 14.5,31.5 0.5,31.5 0.5,27.5 	"/>
	<path fill="#FFFCD5" stroke="#6D6E6F" stroke-miterlimit="10" d="M0.5,31.5v-20c0,0,4,0,4,1c0,10,10,19,10,19H0.5z"/>
	<rect x="20.5" y="5.5" fill="#E6884D" stroke="#6D6E6F" stroke-miterlimit="10" width="8" height="22"/>
	<rect x="23.5" y="0.5" fill="#FFFCD5" stroke="#6D6E6F" stroke-miterlimit="10" width="8" height="22"/>
	<polygon fill="#90C97F" stroke="#6D6E6F" stroke-miterlimit="10" points="4.5,12.5 0.5,12.5 0.5,0.5 11.5,0.5 	"/>
	<path fill="#E6884D" stroke="#6D6E6F" stroke-miterlimit="10" d="M14.5,31.5c0,0-11.5-9.5-11-19c0.3-6.5,8-12,8-12h3V31.5z"/>
	<g>
		<polygon fill="#457B84" points="22,16 22,15 21,15 21,14 20,14 20,16 12,16 12,18 20,18 20,20 21,20 21,19 22,19 22,18 23,18 
			23,16 		"/>
		<rect x="11" y="18" fill="#FFFFFF" width="9" height="1"/>
		<rect x="19" y="18" fill="#FFFFFF" width="1" height="3"/>
		<rect x="20" y="20" fill="#FFFFFF" width="1" height="1"/>
		<rect x="21" y="19" fill="#FFFFFF" width="1" height="1"/>
		<rect x="22" y="18" fill="#FFFFFF" width="1" height="1"/>
		<rect x="23" y="16" fill="#FFFFFF" width="1" height="2"/>
		<rect x="22" y="15" fill="#FFFFFF" width="1" height="1"/>
		<rect x="21" y="14" fill="#FFFFFF" width="1" height="1"/>
		<rect x="20" y="13" fill="#FFFFFF" width="1" height="1"/>
		<rect x="19" y="13" fill="#FFFFFF" width="1" height="3"/>
		<rect x="12" y="15" fill="#FFFFFF" width="7" height="1"/>
		<rect x="11" y="15" fill="#FFFFFF" width="1" height="3"/>
	</g>
</g>
</svg>
